<?xml version="1.0" encoding="UTF-8"?>
<svg width="1200" height="800" viewBox="0 0 1200 800" xmlns="http://www.w3.org/2000/svg">
  <defs>
    <!-- Градиент для неба -->
    <linearGradient id="skyGradient" x1="0%" y1="0%" x2="0%" y2="100%">
      <stop offset="0%" style="stop-color:#87CEEB;stop-opacity:1" />
      <stop offset="100%" style="stop-color:#E0F6FF;stop-opacity:1" />
    </linearGradient>
    
    <!-- Градиент для асфальта -->
    <linearGradient id="asphaltGradient" x1="0%" y1="0%" x2="0%" y2="100%">
      <stop offset="0%" style="stop-color:#2C2C2C;stop-opacity:1" />
      <stop offset="100%" style="stop-color:#1A1A1A;stop-opacity:1" />
    </linearGradient>
    
    <!-- Градиент для зданий -->
    <linearGradient id="buildingGradient" x1="0%" y1="0%" x2="100%" y2="100%">
      <stop offset="0%" style="stop-color:#4A4A4A;stop-opacity:1" />
      <stop offset="100%" style="stop-color:#2A2A2A;stop-opacity:1" />
    </linearGradient>
  </defs>
  
  <!-- Небо -->
  <rect width="1200" height="400" fill="url(#skyGradient)"/>
  
  <!-- Облака -->
  <ellipse cx="200" cy="80" rx="60" ry="25" fill="white" opacity="0.8"/>
  <ellipse cx="220" cy="70" rx="40" ry="20" fill="white" opacity="0.8"/>
  <ellipse cx="180" cy="75" rx="35" ry="18" fill="white" opacity="0.8"/>
  
  <ellipse cx="600" cy="60" rx="80" ry="30" fill="white" opacity="0.7"/>
  <ellipse cx="620" cy="50" rx="50" ry="25" fill="white" opacity="0.7"/>
  <ellipse cx="580" cy="55" rx="45" ry="22" fill="white" opacity="0.7"/>
  
  <ellipse cx="1000" cy="90" rx="70" ry="28" fill="white" opacity="0.6"/>
  <ellipse cx="1020" cy="80" rx="45" ry="20" fill="white" opacity="0.6"/>
  
  <!-- Здания на заднем плане -->
  <rect x="0" y="200" width="150" height="200" fill="url(#buildingGradient)"/>
  <rect x="150" y="180" width="120" height="220" fill="url(#buildingGradient)"/>
  <rect x="270" y="190" width="100" height="210" fill="url(#buildingGradient)"/>
  <rect x="370" y="200" width="130" height="200" fill="url(#buildingGradient)"/>
  
  <rect x="800" y="180" width="140" height="220" fill="url(#buildingGradient)"/>
  <rect x="940" y="190" width="110" height="210" fill="url(#buildingGradient)"/>
  <rect x="1050" y="200" width="150" height="200" fill="url(#buildingGradient)"/>
  
  <!-- Окна зданий -->
  <rect x="20" y="220" width="15" height="20" fill="#FFD700" opacity="0.6"/>
  <rect x="40" y="220" width="15" height="20" fill="#FFD700" opacity="0.6"/>
  <rect x="60" y="220" width="15" height="20" fill="#FFD700" opacity="0.6"/>
  <rect x="80" y="220" width="15" height="20" fill="#FFD700" opacity="0.6"/>
  <rect x="100" y="220" width="15" height="20" fill="#FFD700" opacity="0.6"/>
  <rect x="120" y="220" width="15" height="20" fill="#FFD700" opacity="0.6"/>
  
  <rect x="20" y="250" width="15" height="20" fill="#FFD700" opacity="0.6"/>
  <rect x="40" y="250" width="15" height="20" fill="#FFD700" opacity="0.6"/>
  <rect x="60" y="250" width="15" height="20" fill="#FFD700" opacity="0.6"/>
  <rect x="80" y="250" width="15" height="20" fill="#FFD700" opacity="0.6"/>
  <rect x="100" y="250" width="15" height="20" fill="#FFD700" opacity="0.6"/>
  <rect x="120" y="250" width="15" height="20" fill="#FFD700" opacity="0.6"/>
  
  <!-- Асфальтовая площадка -->
  <rect x="0" y="400" width="1200" height="400" fill="url(#asphaltGradient)"/>
  
  <!-- Разметка парковки -->
  <line x1="0" y1="500" x2="1200" y2="500" stroke="white" stroke-width="2" opacity="0.3"/>
  <line x1="0" y1="600" x2="1200" y2="600" stroke="white" stroke-width="2" opacity="0.3"/>
  <line x1="0" y1="700" x2="1200" y2="700" stroke="white" stroke-width="2" opacity="0.3"/>
  
  <!-- Автомобили - первый ряд -->
  <!-- Красная машина -->
  <rect x="50" y="420" width="80" height="40" fill="#DC143C" rx="5"/>
  <rect x="60" y="410" width="60" height="20" fill="#DC143C" rx="3"/>
  <rect x="70" y="415" width="15" height="10" fill="#87CEEB" opacity="0.8"/>
  <rect x="90" y="415" width="15" height="10" fill="#87CEEB" opacity="0.8"/>
  <circle cx="80" cy="470" r="8" fill="#2C2C2C"/>
  <circle cx="100" cy="470" r="8" fill="#2C2C2C"/>
  
  <!-- Синяя машина -->
  <rect x="200" y="420" width="80" height="40" fill="#4169E1" rx="5"/>
  <rect x="210" y="410" width="60" height="20" fill="#4169E1" rx="3"/>
  <rect x="220" y="415" width="15" height="10" fill="#87CEEB" opacity="0.8"/>
  <rect x="240" y="415" width="15" height="10" fill="#87CEEB" opacity="0.8"/>
  <circle cx="230" cy="470" r="8" fill="#2C2C2C"/>
  <circle cx="250" cy="470" r="8" fill="#2C2C2C"/>
  
  <!-- Белая машина -->
  <rect x="350" y="420" width="80" height="40" fill="#F5F5F5" rx="5"/>
  <rect x="360" y="410" width="60" height="20" fill="#F5F5F5" rx="3"/>
  <rect x="370" y="415" width="15" height="10" fill="#87CEEB" opacity="0.8"/>
  <rect x="390" y="415" width="15" height="10" fill="#87CEEB" opacity="0.8"/>
  <circle cx="380" cy="470" r="8" fill="#2C2C2C"/>
  <circle cx="400" cy="470" r="8" fill="#2C2C2C"/>
  
  <!-- Черная машина -->
  <rect x="500" y="420" width="80" height="40" fill="#2C2C2C" rx="5"/>
  <rect x="510" y="410" width="60" height="20" fill="#2C2C2C" rx="3"/>
  <rect x="520" y="415" width="15" height="10" fill="#87CEEB" opacity="0.8"/>
  <rect x="540" y="415" width="15" height="10" fill="#87CEEB" opacity="0.8"/>
  <circle cx="530" cy="470" r="8" fill="#2C2C2C"/>
  <circle cx="550" cy="470" r="8" fill="#2C2C2C"/>
  
  <!-- Серая машина -->
  <rect x="650" y="420" width="80" height="40" fill="#708090" rx="5"/>
  <rect x="660" y="410" width="60" height="20" fill="#708090" rx="3"/>
  <rect x="670" y="415" width="15" height="10" fill="#87CEEB" opacity="0.8"/>
  <rect x="690" y="415" width="15" height="10" fill="#87CEEB" opacity="0.8"/>
  <circle cx="680" cy="470" r="8" fill="#2C2C2C"/>
  <circle cx="700" cy="470" r="8" fill="#2C2C2C"/>
  
  <!-- Зеленая машина -->
  <rect x="800" y="420" width="80" height="40" fill="#228B22" rx="5"/>
  <rect x="810" y="410" width="60" height="20" fill="#228B22" rx="3"/>
  <rect x="820" y="415" width="15" height="10" fill="#87CEEB" opacity="0.8"/>
  <rect x="840" y="415" width="15" height="10" fill="#87CEEB" opacity="0.8"/>
  <circle cx="830" cy="470" r="8" fill="#2C2C2C"/>
  <circle cx="850" cy="470" r="8" fill="#2C2C2C"/>
  
  <!-- Автомобили - второй ряд -->
  <!-- Красная машина -->
  <rect x="100" y="520" width="80" height="40" fill="#DC143C" rx="5"/>
  <rect x="110" y="510" width="60" height="20" fill="#DC143C" rx="3"/>
  <rect x="120" y="515" width="15" height="10" fill="#87CEEB" opacity="0.8"/>
  <rect x="140" y="515" width="15" height="10" fill="#87CEEB" opacity="0.8"/>
  <circle cx="130" cy="570" r="8" fill="#2C2C2C"/>
  <circle cx="150" cy="570" r="8" fill="#2C2C2C"/>
  
  <!-- Синяя машина -->
  <rect x="250" y="520" width="80" height="40" fill="#4169E1" rx="5"/>
  <rect x="260" y="510" width="60" height="20" fill="#4169E1" rx="3"/>
  <rect x="270" y="515" width="15" height="10" fill="#87CEEB" opacity="0.8"/>
  <rect x="290" y="515" width="15" height="10" fill="#87CEEB" opacity="0.8"/>
  <circle cx="280" cy="570" r="8" fill="#2C2C2C"/>
  <circle cx="300" cy="570" r="8" fill="#2C2C2C"/>
  
  <!-- Белая машина -->
  <rect x="400" y="520" width="80" height="40" fill="#F5F5F5" rx="5"/>
  <rect x="410" y="510" width="60" height="20" fill="#F5F5F5" rx="3"/>
  <rect x="420" y="515" width="15" height="10" fill="#87CEEB" opacity="0.8"/>
  <rect x="440" y="515" width="15" height="10" fill="#87CEEB" opacity="0.8"/>
  <circle cx="430" cy="570" r="8" fill="#2C2C2C"/>
  <circle cx="450" cy="570" r="8" fill="#2C2C2C"/>
  
  <!-- Черная машина -->
  <rect x="550" y="520" width="80" height="40" fill="#2C2C2C" rx="5"/>
  <rect x="560" y="510" width="60" height="20" fill="#2C2C2C" rx="3"/>
  <rect x="570" y="515" width="15" height="10" fill="#87CEEB" opacity="0.8"/>
  <rect x="590" y="515" width="15" height="10" fill="#87CEEB" opacity="0.8"/>
  <circle cx="580" cy="570" r="8" fill="#2C2C2C"/>
  <circle cx="600" cy="570" r="8" fill="#2C2C2C"/>
  
  <!-- Серая машина -->
  <rect x="700" y="520" width="80" height="40" fill="#708090" rx="5"/>
  <rect x="710" y="510" width="60" height="20" fill="#708090" rx="3"/>
  <rect x="720" y="515" width="15" height="10" fill="#87CEEB" opacity="0.8"/>
  <rect x="740" y="515" width="15" height="10" fill="#87CEEB" opacity="0.8"/>
  <circle cx="730" cy="570" r="8" fill="#2C2C2C"/>
  <circle cx="750" cy="570" r="8" fill="#2C2C2C"/>
  
  <!-- Зеленая машина -->
  <rect x="850" y="520" width="80" height="40" fill="#228B22" rx="5"/>
  <rect x="860" y="510" width="60" height="20" fill="#228B22" rx="3"/>
  <rect x="870" y="515" width="15" height="10" fill="#87CEEB" opacity="0.8"/>
  <rect x="890" y="515" width="15" height="10" fill="#87CEEB" opacity="0.8"/>
  <circle cx="880" cy="570" r="8" fill="#2C2C2C"/>
  <circle cx="900" cy="570" r="8" fill="#2C2C2C"/>
  
  <!-- Автомобили - третий ряд -->
  <!-- Красная машина -->
  <rect x="150" y="620" width="80" height="40" fill="#DC143C" rx="5"/>
  <rect x="160" y="610" width="60" height="20" fill="#DC143C" rx="3"/>
  <rect x="170" y="615" width="15" height="10" fill="#87CEEB" opacity="0.8"/>
  <rect x="190" y="615" width="15" height="10" fill="#87CEEB" opacity="0.8"/>
  <circle cx="180" cy="670" r="8" fill="#2C2C2C"/>
  <circle cx="200" cy="670" r="8" fill="#2C2C2C"/>
  
  <!-- Синяя машина -->
  <rect x="300" y="620" width="80" height="40" fill="#4169E1" rx="5"/>
  <rect x="310" y="610" width="60" height="20" fill="#4169E1" rx="3"/>
  <rect x="320" y="615" width="15" height="10" fill="#87CEEB" opacity="0.8"/>
  <rect x="340" y="615" width="15" height="10" fill="#87CEEB" opacity="0.8"/>
  <circle cx="330" cy="670" r="8" fill="#2C2C2C"/>
  <circle cx="350" cy="670" r="8" fill="#2C2C2C"/>
  
  <!-- Белая машина -->
  <rect x="450" y="620" width="80" height="40" fill="#F5F5F5" rx="5"/>
  <rect x="460" y="610" width="60" height="20" fill="#F5F5F5" rx="3"/>
  <rect x="470" y="615" width="15" height="10" fill="#87CEEB" opacity="0.8"/>
  <rect x="490" y="615" width="15" height="10" fill="#87CEEB" opacity="0.8"/>
  <circle cx="480" cy="670" r="8" fill="#2C2C2C"/>
  <circle cx="500" cy="670" r="8" fill="#2C2C2C"/>
  
  <!-- Черная машина -->
  <rect x="600" y="620" width="80" height="40" fill="#2C2C2C" rx="5"/>
  <rect x="610" y="610" width="60" height="20" fill="#2C2C2C" rx="3"/>
  <rect x="620" y="615" width="15" height="10" fill="#87CEEB" opacity="0.8"/>
  <rect x="640" y="615" width="15" height="10" fill="#87CEEB" opacity="0.8"/>
  <circle cx="630" cy="670" r="8" fill="#2C2C2C"/>
  <circle cx="650" cy="670" r="8" fill="#2C2C2C"/>
  
  <!-- Серая машина -->
  <rect x="750" y="620" width="80" height="40" fill="#708090" rx="5"/>
  <rect x="760" y="610" width="60" height="20" fill="#708090" rx="3"/>
  <rect x="770" y="615" width="15" height="10" fill="#87CEEB" opacity="0.8"/>
  <rect x="790" y="615" width="15" height="10" fill="#87CEEB" opacity="0.8"/>
  <circle cx="780" cy="670" r="8" fill="#2C2C2C"/>
  <circle cx="800" cy="670" r="8" fill="#2C2C2C"/>
  
  <!-- Зеленая машина -->
  <rect x="900" y="620" width="80" height="40" fill="#228B22" rx="5"/>
  <rect x="910" y="610" width="60" height="20" fill="#228B22" rx="3"/>
  <rect x="920" y="615" width="15" height="10" fill="#87CEEB" opacity="0.8"/>
  <rect x="940" y="615" width="15" height="10" fill="#87CEEB" opacity="0.8"/>
  <circle cx="930" cy="670" r="8" fill="#2C2C2C"/>
  <circle cx="950" cy="670" r="8" fill="#2C2C2C"/>
  
  <!-- Тени от автомобилей -->
  <ellipse cx="90" cy="480" rx="40" ry="8" fill="black" opacity="0.2"/>
  <ellipse cx="240" cy="480" rx="40" ry="8" fill="black" opacity="0.2"/>
  <ellipse cx="390" cy="480" rx="40" ry="8" fill="black" opacity="0.2"/>
  <ellipse cx="540" cy="480" rx="40" ry="8" fill="black" opacity="0.2"/>
  <ellipse cx="690" cy="480" rx="40" ry="8" fill="black" opacity="0.2"/>
  <ellipse cx="840" cy="480" rx="40" ry="8" fill="black" opacity="0.2"/>
  
  <ellipse cx="140" cy="580" rx="40" ry="8" fill="black" opacity="0.2"/>
  <ellipse cx="290" cy="580" rx="40" ry="8" fill="black" opacity="0.2"/>
  <ellipse cx="440" cy="580" rx="40" ry="8" fill="black" opacity="0.2"/>
  <ellipse cx="590" cy="580" rx="40" ry="8" fill="black" opacity="0.2"/>
  <ellipse cx="740" cy="580" rx="40" ry="8" fill="black" opacity="0.2"/>
  <ellipse cx="890" cy="580" rx="40" ry="8" fill="black" opacity="0.2"/>
  
  <ellipse cx="190" cy="680" rx="40" ry="8" fill="black" opacity="0.2"/>
  <ellipse cx="340" cy="680" rx="40" ry="8" fill="black" opacity="0.2"/>
  <ellipse cx="490" cy="680" rx="40" ry="8" fill="black" opacity="0.2"/>
  <ellipse cx="640" cy="680" rx="40" ry="8" fill="black" opacity="0.2"/>
  <ellipse cx="790" cy="680" rx="40" ry="8" fill="black" opacity="0.2"/>
  <ellipse cx="940" cy="680" rx="40" ry="8" fill="black" opacity="0.2"/>
</svg>
